<svg xmlns="http://www.w3.org/2000/svg" xmlns:xlink="http://www.w3.org/1999/xlink" width="681" height="330" viewBox="0 0 681 330">
    <defs>
        <path id="a" d="M.06 329.94h680.854V.965H.06z"/>
    </defs>
    <g fill="none" fill-rule="evenodd">
        <mask id="b" fill="#fff">
            <use xlink:href="#a"/>
        </mask>
        <path fill="#1C1D1B" d="M477.028 322.465c0 1.126-.18 2.15-.539 3.073a6.008 6.008 0 0 1-1.693 2.383c-.767.665-1.731 1.177-2.894 1.537-1.16.359-2.554.542-4.178.542-1.986 0-3.791-.386-5.415-1.153s-2.887-1.814-3.79-3.148l3.419-3.045c.833.972 1.765 1.666 2.791 2.081a8.545 8.545 0 0 0 3.265.627c1.421 0 2.464-.202 3.131-.608.664-.406.999-1.062.999-1.964 0-.383-.07-.715-.203-.999-.136-.281-.39-.544-.762-.793-.373-.249-.908-.484-1.608-.711-.699-.225-1.601-.461-2.706-.71a24.287 24.287 0 0 1-2.997-.882c-.914-.337-1.695-.765-2.35-1.285a5.216 5.216 0 0 1-1.524-1.963c-.359-.789-.542-1.769-.542-2.944 0-1.081.222-2.053.66-2.908a6.532 6.532 0 0 1 1.811-2.183c.767-.598 1.664-1.055 2.69-1.371a11.196 11.196 0 0 1 3.299-.473c1.851 0 3.47.329 4.857.988 1.386.66 2.643 1.578 3.772 2.761l-3.417 3.323c-.768-.789-1.585-1.392-2.452-1.812-.87-.415-1.846-.625-2.928-.625-.632 0-1.163.063-1.59.188-.428.124-.779.285-1.049.488a1.78 1.78 0 0 0-.576.674 1.848 1.848 0 0 0-.169.78c0 .383.074.701.219.959.148.261.402.492.761.694.362.203.847.395 1.456.576.609.179 1.389.382 2.335.608a35.92 35.92 0 0 1 2.826.794 9.27 9.27 0 0 1 2.537 1.265 6.367 6.367 0 0 1 1.844 2.062c.475.832.71 1.892.71 3.174zm-47.538-8.896c0-1.075-.3-1.843-.898-2.302-.597-.461-1.427-.692-2.487-.692h-6.191v6.058h6.191c2.257 0 3.385-1.02 3.385-3.064zm-.577 16.057l-4.229-8.526h-4.77v8.526h-4.704v-23.687h10.997c1.105 0 2.155.153 3.146.458a7.255 7.255 0 0 1 2.606 1.405 6.687 6.687 0 0 1 1.759 2.35c.429.937.644 2.037.644 3.299 0 1.784-.378 3.244-1.135 4.382-.755 1.14-1.889 2.002-3.4 2.588l4.535 9.205h-5.449zm-56.001 0v-23.687h16.413v4.636h-11.709v4.06h6.802v4.637h-6.802v5.717h12.216v4.637h-16.92zm-29.945-11.844c0-2.402-.553-4.204-1.659-5.403-1.105-1.204-2.909-1.804-5.415-1.804h-2.503v14.414h2.335c1.242 0 2.319-.173 3.233-.521.913-.347 1.663-.835 2.249-1.463.586-.63 1.026-1.389 1.319-2.274.293-.886.441-1.87.441-2.949zm4.905 0c0 2.076-.344 3.865-1.031 5.364-.688 1.501-1.601 2.729-2.741 3.689a11.042 11.042 0 0 1-3.892 2.113 14.9 14.9 0 0 1-4.449.678h-7.073v-23.687h7.41c1.694 0 3.256.21 4.689.626 1.43.42 2.671 1.101 3.721 2.048 1.049.947 1.874 2.171 2.47 3.671.598 1.502.896 3.334.896 5.498zm-49.8 11.844l-8.674-12.926c-.293-.45-.602-.929-.93-1.437a14.525 14.525 0 0 1-.727-1.237c0 .226.007.558.019.999.012.441.016.914.016 1.421 0 .508.004 1.011.016 1.506.012.496.019.914.019 1.251v10.423h-4.704v-23.687h4.568l8.335 12.521c.291.452.6.93.925 1.437.323.508.565.921.722 1.235 0-.224-.007-.559-.016-.997a56.528 56.528 0 0 1-.019-1.421c0-.508-.004-1.011-.016-1.507a57.598 57.598 0 0 1-.016-1.252v-10.016h4.702v23.687h-4.22zm-57.262 0v-23.687h16.412v4.636h-11.708v4.06h6.801v4.637h-6.801v5.717h12.215v4.637H240.81zm-31.706-19.051v19.051H204.4v-19.051h-6.801v-4.636h18.306v4.636h-6.801z" mask="url(#b)"/>
        <path fill="#CF2A2B" d="M389.523 87.531c-6.018 4.196-13.113 6.945-20.795 7.703-5.879 16.074-21.262 27.567-39.372 27.567-23.174 0-41.96-18.786-41.96-41.96 0-20.036 14.054-36.766 32.835-40.936v-18.93c-.152.022-31.941-20.01-31.941-20.01l7.191 28.053-30.241-9.854 14.123 25.645-32.437-2.14 23.329 24.916a60.687 60.687 0 0 0-1.473 13.256c0 23.611 13.519 44.053 33.229 54.046l-7.408 13.088-21.35 11.47 18.229 1.192 3.325 20.036 8.488-18.29 14.658 2.147-11.563-13.61 6.649-11.747a60.574 60.574 0 0 0 16.317 2.242c4.898 0 9.653-.597 14.213-1.694l4.538 9.605-2.568 20.799 11.231-11.242 22.282 13.617-12.092-20.455 13.353-8.71-22.582-1.042-3.04-6.434c18.866-8.702 32.463-26.821 34.832-48.328" mask="url(#b)"/>
        <path fill="#CF2A2B" d="M382.342 51.325c0 9.917-8.065 17.985-17.981 17.985-9.916 0-17.982-8.068-17.982-17.985V31.796h17.982c9.916 0 17.981 8.066 17.981 17.983v1.546zm17.082-10.906c-4.135-15.517-18.244-26.964-35.063-26.964h-18.242l-18.107-6.403v7.989h.024v36.285c0 20.063 16.264 36.325 36.325 36.325 16.957 0 31.158-11.635 35.161-27.345l24.771-9.753-24.869-10.134z" mask="url(#b)"/>
        <path fill="#1C1D1B" d="M100.356 279.054h17.649v-71.015h-17.649v71.015zm78.245 0v-56.45h-20.837v-14.565h58.898v14.565h-20.837v56.45h-17.224zm98.973 0v-26.189l-26.265-44.826h19.801l5.27 10.34c1.961 3.854 3.7 7.492 5.17 10.812 1.455 3.296 2.542 6.049 3.23 8.181l1.619 5.019 1.619-5.019c.683-2.119 1.77-4.872 3.233-8.181a218.403 218.403 0 0 1 5.17-10.811l5.267-10.341h19.579l-26.256 44.505v26.51h-17.437zm97.807-42.948h17.221c2.906 0 5.031-.733 6.32-2.177 1.239-1.393 1.866-3.218 1.866-5.425 0-2.034-.591-3.799-1.758-5.249-1.257-1.562-3.421-2.354-6.428-2.354h-17.221v15.205zm0 30.085h17.964c3.053 0 5.38-.894 6.917-2.656 1.479-1.695 2.226-3.842 2.226-6.381 0-2.635-.764-4.781-2.27-6.377-1.537-1.624-3.811-2.447-6.766-2.447h-18.071v17.861zm-16.373 12.863v-71.015h34.232c8.767 0 15.11 1.555 18.854 4.622 3.695 3.026 5.492 7.298 5.492 13.064 0 3.629-.748 6.384-2.222 8.192-1.597 1.957-3.566 3.614-5.855 4.926l-3 1.719 3.194 1.326c3.079 1.281 5.474 3.133 7.124 5.503 1.631 2.351 2.459 5.506 2.459 9.379 0 7.206-2.079 12.589-6.352 16.462-4.262 3.863-10.96 5.822-19.907 5.822h-34.019zm100.568 0h17.648v-71.015h-17.648v71.015zm77.29-37.951h13.879c3.922 0 6.69-.859 8.465-2.622 1.751-1.743 2.638-4.222 2.638-7.373 0-2.772-.853-5.094-2.54-6.901-1.717-1.84-4.489-2.773-8.243-2.773h-14.199v19.669zm23.229 37.951l-12.149-25.089h-11.08v25.089h-16.798v-71.015h31.574c4.162 0 8.012.43 11.446 1.278 3.339.829 6.228 2.145 8.584 3.911 2.307 1.73 4.113 4.028 5.368 6.829 1.276 2.846 1.925 6.386 1.925 10.519 0 5.225-1.122 9.517-3.33 12.756-2.224 3.263-5.283 5.782-9.091 7.486l-1.655.74 14.449 27.496h-19.243zm77.338-14.244h6.165c3.343 0 6.259-.366 8.669-1.082 2.548-.755 4.677-2.018 6.331-3.753 1.652-1.733 2.847-4.026 3.553-6.815.669-2.645 1.008-5.916 1.008-9.72 0-3.517-.32-6.62-.952-9.224-.662-2.732-1.77-5.01-3.288-6.771-1.546-1.786-3.583-3.116-6.056-3.955-2.367-.801-5.27-1.206-8.626-1.206h-6.804v42.526zm-17.436 14.244v-71.015h24.346c5.638 0 10.827.591 15.422 1.754 4.464 1.136 8.289 3.068 11.368 5.747 3.068 2.674 5.486 6.259 7.183 10.654 1.724 4.46 2.598 10.157 2.598 16.928 0 6.786-.825 12.55-2.454 17.131-1.592 4.481-4.003 8.139-7.164 10.869-3.186 2.757-7.196 4.782-11.918 6.022-4.827 1.267-10.527 1.91-16.95 1.91h-22.431zm-587.784 1.17c-5.251 0-9.93-.931-13.904-2.768-3.969-1.833-7.348-4.383-10.043-7.578-2.713-3.215-4.787-7.093-6.162-11.526C.708 253.857 0 248.877 0 243.547c0-5.733.81-10.944 2.404-15.49 1.583-4.51 3.825-8.373 6.667-11.482a29.175 29.175 0 0 1 10.151-7.184c3.915-1.672 8.322-2.521 13.097-2.521 4.358 0 8.151.459 11.272 1.367 3.064.889 5.731 2.219 7.927 3.953 2.197 1.739 4.081 3.91 5.599 6.45 1.325 2.214 2.543 4.716 3.632 7.461l-15.561 6.098a48.318 48.318 0 0 0-1.458-3.233c-.783-1.563-1.705-2.902-2.744-3.981a11.747 11.747 0 0 0-3.725-2.609c-1.419-.625-3.117-.942-5.048-.942-2.455 0-4.63.613-6.464 1.822-1.782 1.176-3.269 2.801-4.423 4.833-1.114 1.959-1.931 4.302-2.427 6.961-.475 2.564-.717 5.423-.717 8.497 0 2.934.242 5.721.717 8.284.494 2.654 1.308 5.011 2.42 7.003 1.149 2.063 2.632 3.724 4.409 4.935 1.834 1.253 4.088 1.89 6.697 1.89 1.816 0 3.437-.248 4.82-.734a11.53 11.53 0 0 0 3.862-2.304c1.086-.969 2.14-2.177 3.13-3.587a50.692 50.692 0 0 0 2.132-3.328l14.474 7.679a51.344 51.344 0 0 1-3.525 5.463c-1.592 2.156-3.56 4.089-5.848 5.747-2.294 1.659-5.053 3.028-8.202 4.067-3.147 1.036-6.866 1.562-11.055 1.562z" mask="url(#b)"/>
    </g>
</svg>
